<?xml version="1.0" standalone="no"?>
<!DOCTYPE svg PUBLIC "-//W3C//DTD SVG 20010904//EN"
 "http://www.w3.org/TR/2001/REC-SVG-20010904/DTD/svg10.dtd">
<svg version="1.0" xmlns="http://www.w3.org/2000/svg"
 width="200.000000pt" height="200.000000pt" viewBox="0 0 200.000000 200.000000"
 preserveAspectRatio="xMidYMid meet">
<metadata>
Created by potrace 1.16, written by Peter Selinger 2001-2019
</metadata>
<g transform="translate(0.000000,200.000000) scale(0.100000,-0.100000)"
fill="#000000" stroke="none">
<path d="M0 1000 l0 -1000 1000 0 1000 0 0 1000 0 1000 -1000 0 -1000 0 0
-1000z m1704 824 c9 -3 16 -16 16 -28 0 -29 -36 -86 -55 -86 -20 0 -19 5 6 39
29 40 21 58 -13 31 -37 -29 -80 -120 -76 -162 6 -61 62 -40 107 40 16 28 25 5
11 -28 -24 -58 -105 -103 -126 -69 -4 6 -17 -2 -33 -22 -20 -24 -32 -31 -46
-26 -15 6 -17 15 -12 60 l5 52 -28 -60 c-32 -68 -56 -95 -81 -95 -10 0 -19 8
-22 18 -3 14 -6 12 -17 -10 -13 -28 -35 -42 -51 -32 -12 7 -11 46 2 100 16 64
32 55 24 -13 l-6 -58 25 45 c14 25 25 52 26 61 0 9 7 22 16 30 14 11 15 6 8
-49 -11 -101 19 -74 41 35 7 34 26 55 33 35 2 -6 11 -3 23 9 38 38 48 18 28
-54 -12 -45 -5 -58 18 -34 10 9 20 42 24 77 8 72 48 143 98 177 39 26 34 25
55 17z m258 -49 c-6 -42 -11 -48 -27 -35 -13 11 -18 6 -34 -31 -10 -24 -21
-52 -24 -61 -8 -22 -59 -36 -65 -19 -3 8 -14 3 -33 -15 -24 -23 -31 -25 -44
-14 -19 16 -19 53 -1 89 19 36 39 52 73 57 l28 4 -3 -56 c-5 -71 12 -65 29 12
14 61 38 105 39 69 0 -18 1 -18 16 3 19 28 50 25 46 -3z m-710 -142 c63 -57
-33 -221 -144 -248 -41 -10 -43 10 -14 118 32 116 32 116 1 87 -14 -13 -25
-29 -25 -37 0 -7 -7 -13 -15 -13 -16 0 -19 17 -9 44 7 18 62 54 102 66 35 12
81 4 104 -17z m-518 -164 c28 -22 35 -65 16 -113 -24 -64 -149 -160 -181 -140
-14 8 -6 62 25 158 l24 75 -25 -16 c-14 -9 -29 -27 -34 -41 -11 -27 -35 -24
-31 4 4 25 55 69 95 82 51 16 82 14 111 -9z m276 10 c0 -5 -5 -30 -11 -55 -14
-53 -5 -68 21 -34 24 32 38 19 16 -15 -38 -57 -81 -35 -65 33 4 20 7 38 5 39
-2 2 -16 -26 -32 -61 -21 -48 -37 -68 -57 -77 -23 -10 -30 -10 -37 2 -7 10
-13 7 -30 -13 -41 -53 -64 -4 -39 85 15 56 31 46 23 -15 -8 -66 8 -56 35 22
27 77 42 76 35 -2 -5 -58 -4 -62 10 -44 9 11 19 36 22 55 9 49 23 74 39 67 7
-2 19 2 25 10 14 16 40 19 40 3z m-783 -185 c21 -21 25 -32 20 -65 -10 -78
-90 -164 -163 -176 l-37 -6 6 47 c4 25 17 78 30 116 23 68 23 70 3 57 -11 -8
-25 -22 -30 -33 -15 -27 -29 -35 -40 -24 -15 15 25 62 74 88 60 30 104 29 137
-4z m269 4 c-24 -89 -14 -129 18 -70 14 25 15 26 16 5 0 -28 -34 -65 -54 -57
-21 8 -27 34 -17 72 15 51 2 38 -29 -30 -33 -74 -63 -98 -89 -74 -16 15 -19
14 -29 -9 -7 -15 -20 -25 -32 -25 -17 0 -20 6 -19 43 1 53 11 89 26 94 9 3 11
-11 7 -49 l-4 -53 24 49 c13 27 27 57 29 67 3 11 10 19 15 19 6 0 8 -24 5 -62
-4 -55 -3 -61 10 -46 7 10 19 43 26 74 11 47 16 55 32 51 10 -3 23 1 30 9 19
23 42 18 35 -8z m851 -28 c87 -35 83 -34 83 -15 0 19 15 19 74 -1 33 -11 64
-15 99 -10 l52 6 -30 -20 c-52 -34 -100 -43 -174 -30 -78 14 -121 3 -121 -30
0 -37 40 -45 111 -21 75 25 99 26 125 5 17 -14 17 -15 1 -10 -23 7 -50 -7
-106 -56 -50 -44 -58 -45 -108 -18 -43 23 -69 14 -79 -27 -8 -29 5 -76 21 -77
5 -1 13 13 16 29 5 24 7 20 8 -21 1 -58 -20 -94 -70 -120 -41 -21 -26 -38 26
-31 30 5 48 2 61 -9 16 -13 17 -15 2 -10 -22 7 -76 -13 -114 -41 -22 -18 -26
-25 -15 -32 8 -5 9 -11 3 -15 -14 -8 -56 -96 -49 -102 3 -3 15 9 27 25 16 24
29 31 53 30 31 0 31 -1 8 -10 -13 -5 -35 -21 -47 -34 -13 -14 -29 -25 -36 -25
-7 0 -24 -21 -38 -47 -78 -148 -254 -233 -421 -205 -336 58 -457 477 -203 701
82 72 196 108 425 135 101 12 125 18 146 37 l25 24 -6 -50 c-12 -107 -11 -110
4 -110 15 0 25 31 35 109 5 35 15 57 35 78 38 37 80 37 177 -2z"/>
<path d="M1157 1623 c-10 -19 -49 -194 -44 -199 12 -12 70 33 98 75 35 54 38
94 7 115 -24 17 -54 21 -61 9z"/>
<path d="M619 1355 c-30 -118 -25 -127 36 -73 38 33 75 95 75 126 0 25 -31 52
-61 52 -22 0 -26 -8 -50 -105z"/>
<path d="M124 1281 c4 -5 -5 -51 -19 -102 -13 -51 -23 -95 -20 -97 9 -10 78
43 100 77 35 53 41 88 20 111 -18 20 -92 30 -81 11z"/>
<path d="M1218 1183 c-9 -10 -23 -42 -32 -72 -20 -69 -49 -101 -92 -101 -45 0
-88 51 -81 95 l5 31 -61 -7 c-34 -3 -78 -1 -97 4 -19 5 -69 7 -111 5 -143 -8
-269 -95 -333 -228 -28 -59 -31 -74 -31 -165 0 -93 2 -105 33 -167 41 -85 128
-167 209 -199 44 -17 79 -23 148 -23 81 -1 97 2 157 31 140 66 221 183 237
343 5 50 4 92 -1 103 -14 28 0 56 40 76 l37 19 -28 11 c-15 6 -30 18 -34 27
-10 27 17 125 42 150 14 14 20 26 14 30 -6 3 -8 17 -5 30 8 29 4 30 -16 7z"/>
</g>
</svg>
